HIERARCHY
ROOT Hips
{
	OFFSET 0.000000 0.000000 0.000000
	CHANNELS 6 Xposition Yposition Zposition Zrotation Yrotation Xrotation
	JOINT LHipJoint
	{
		OFFSET 0.000000 0.000000 0.000000
		CHANNELS 3 Zrotation Yrotation Xrotation
		JOINT LeftUpLeg
		{
			OFFSET 1.363060 -1.794630 0.839290
			CHANNELS 3 Zrotation Yrotation Xrotation
			JOINT LeftLeg
			{
				OFFSET 2.448110 -6.726130 0.000000
				CHANNELS 3 Zrotation Yrotation Xrotation
				JOINT LeftFoot
				{
					OFFSET 2.562200 -7.039590 0.000000
					CHANNELS 3 Zrotation Yrotation Xrotation
					JOINT LeftToeBase
					{
						OFFSET 0.157640 -0.433110 2.322550
						CHANNELS 3 Zrotation Yrotation Xrotation
						End Site
						{
							OFFSET 0.000000 0.000000 0.000000
						}
					}
				}
			}
		}
	}
	JOINT RHipJoint
	{
		OFFSET 0.000000 0.000000 0.000000
		CHANNELS 3 Zrotation Yrotation Xrotation
		JOINT RightUpLeg
		{
			OFFSET -1.305520 -1.794630 0.839290
			CHANNELS 3 Zrotation Yrotation Xrotation
			JOINT RightLeg
			{
				OFFSET -2.542530 -6.985550 0.000000
				CHANNELS 3 Zrotation Yrotation Xrotation
				JOINT RightFoot
				{
					OFFSET -2.568260 -7.056230 0.000000
					CHANNELS 3 Zrotation Yrotation Xrotation
					JOINT RightToeBase
					{
						OFFSET -0.164730 -0.452590 2.363150
						CHANNELS 3 Zrotation Yrotation Xrotation
						End Site
						{
							OFFSET 0.000000 0.000000 0.000000
						}
					}
				}
			}
		}
	}
	JOINT LowerBack
	{
		OFFSET 0.000000 0.000000 0.000000
		CHANNELS 3 Zrotation Yrotation Xrotation
		JOINT Spine
		{
			OFFSET 0.028270 2.035590 -0.193380
			CHANNELS 3 Zrotation Yrotation Xrotation
			JOINT Spine1
			{
				OFFSET 0.056720 2.048850 -0.042750
				CHANNELS 3 Zrotation Yrotation Xrotation
				JOINT Neck
				{
					OFFSET 0.000000 0.000000 0.000000
					CHANNELS 3 Zrotation Yrotation Xrotation
					JOINT Neck1
					{
						OFFSET -0.054170 1.746240 0.172020
						CHANNELS 3 Zrotation Yrotation Xrotation
						JOINT Head
						{
							OFFSET 0.104070 1.761360 -0.123970
							CHANNELS 3 Zrotation Yrotation Xrotation
							End Site
							{
								OFFSET 0.000000 0.000000 0.000000
							}
						}
					}
				}
				JOINT LeftShoulder
				{
					OFFSET 0.000000 0.000000 0.000000
					CHANNELS 3 Zrotation Yrotation Xrotation
					JOINT LeftArm
					{
						OFFSET 3.362410 1.200890 -0.311210
						CHANNELS 3 Zrotation Yrotation Xrotation
						JOINT LeftForeArm
						{
							OFFSET 4.983000 -0.000000 -0.000000
							CHANNELS 3 Zrotation Yrotation Xrotation
							JOINT LeftHand
							{
								OFFSET 3.483560 -0.000000 -0.000000
								CHANNELS 3 Zrotation Yrotation Xrotation
								JOINT LeftFingerBase
								{
									OFFSET 0.000000 0.000000 0.000000
									CHANNELS 3 Zrotation Yrotation Xrotation
									JOINT LeftHandIndex1
									{
										OFFSET 0.715260 -0.000000 -0.000000
										CHANNELS 3 Zrotation Yrotation Xrotation
										End Site
										{
											OFFSET 0.000000 0.000000 0.000000
										}
									}
								}
								JOINT LThumb
								{
									OFFSET 0.000000 0.000000 0.000000
									CHANNELS 3 Zrotation Yrotation Xrotation
									End Site
									{
										OFFSET 0.000000 0.000000 0.000000
									}
								}
							}
						}
					}
				}
				JOINT RightShoulder
				{
					OFFSET 0.000000 0.000000 0.000000
					CHANNELS 3 Zrotation Yrotation Xrotation
					JOINT RightArm
					{
						OFFSET -3.136600 1.374050 -0.404650
						CHANNELS 3 Zrotation Yrotation Xrotation
						JOINT RightForeArm
						{
							OFFSET -5.241900 -0.000000 -0.000000
							CHANNELS 3 Zrotation Yrotation Xrotation
							JOINT RightHand
							{
								OFFSET -3.444170 -0.000000 -0.000000
								CHANNELS 3 Zrotation Yrotation Xrotation
								JOINT RightFingerBase
								{
									OFFSET 0.000000 0.000000 0.000000
									CHANNELS 3 Zrotation Yrotation Xrotation
									JOINT RightHandIndex1
									{
										OFFSET -0.622530 -0.000000 -0.000000
										CHANNELS 3 Zrotation Yrotation Xrotation
										End Site
										{
											OFFSET 0.000000 0.000000 0.000000
										}
									}
								}
								JOINT RThumb
								{
									OFFSET 0.000000 0.000000 0.000000
									CHANNELS 3 Zrotation Yrotation Xrotation
									End Site
									{
										OFFSET 0.000000 0.000000 0.000000
									}
								}
							}
						}
					}
				}
			}
		}
	}
}
MOTION
Frames: 12
Frame Time: 0.008333
-5.137778 15.664398 19.537231 -3.290837 -0.852748 3.782657 0.706469 1.811270 0.034105 -1.347877 0.451769 -10.500133 3.058345 7.901726 21.789450 0.423349 3.331111 9.262172 1.049819 3.999175 11.804193 3.233200 0.101304 3.953588 23.126123 6.959015 6.468929 1.899474 1.249415 17.181444 1.105842 10.451114 16.842150 0.893863 2.648853 13.123963 6.986901 2.532783 3.852242 2.480449 4.751876 1.289376 1.439462 2.263156 5.516128 0.361915 0.647639 -1.293221 5.090161 0.622099 10.025538 2.964899 1.243898 6.573925 2.470281 3.563416 0.652958 -28.798229 12.463317 22.140247 10.045885 -2.222584 0.690263 0.309924 1.466021 23.396303 18.407404 19.664137 10.293941 -2.005155 0.000000 0.000000 33.157539 59.843140 39.409229 7.349815 5.199183 1.330381 63.284615 14.554914 31.236227 5.234768 32.986996 7.083365 2.043219 1.611698 10.343105 97.261475 48.079395 76.462318 5.580328 0.000000 0.000000 100.601212 39.306976 96.653946
-5.136662 15.778038 19.634644 -3.311679 -0.782332 3.768893 0.675854 1.800978 0.008597 -1.427848 0.405169 -10.636541 3.089060 7.903943 21.804485 0.403899 3.248657 9.201802 1.035405 3.971292 11.767724 3.157409 0.064932 3.916632 23.085541 6.907994 6.335875 1.881056 1.203265 17.146862 1.072827 10.334651 16.675810 0.868908 2.587036 12.992231 6.978764 2.519263 3.777212 2.469374 4.748228 1.226257 1.405418 2.258042 5.461117 0.279318 0.592487 -1.404015 5.092802 0.553624 10.002395 2.931461 1.218496 6.553429 2.405835 3.527405 0.642603 -29.447813 12.421350 21.952976 10.032440 -2.388614 0.659253 0.300556 1.450873 23.224548 18.357418 19.525053 10.239672 -2.052424 0.000000 0.000000 32.829056 59.540390 39.000141 7.309552 5.171411 1.312428 63.380253 14.503841 31.259180 4.993233 32.997540 6.983903 2.040313 1.604049 10.246294 96.758904 47.904736 76.178123 5.602252 0.000000 0.000000 100.404327 39.045021 96.395241
-5.133286 15.896991 19.752216 -3.327132 -0.701858 3.769240 0.657398 1.797657 -0.009910 -1.484492 0.376565 -10.729346 3.129188 7.929542 21.882181 0.392724 3.200961 9.191385 1.029392 3.968590 11.809303 3.118814 0.042190 3.904096 23.123810 6.899415 6.273436 1.875926 1.179636 17.180599 1.055962 10.294737 16.613264 0.856427 2.557571 12.954090 6.994930 2.518503 3.742139 2.470418 4.760676 1.190481 1.388536 2.261528 5.440716 0.226823 0.558950 -1.477244 5.111995 0.512438 10.018475 2.920274 1.206088 6.559367 2.371176 3.515319 0.638126 -29.959410 12.427911 21.893681 10.052749 -2.509263 0.639465 0.294899 1.444107 23.158703 18.365828 19.474482 10.226554 -2.091404 0.000000 0.000000 32.678329 59.452217 38.787186 7.297449 5.164158 1.301643 63.582905 14.495296 31.342873 4.815516 33.066498 6.911215 2.041096 1.597321 10.157445 96.300591 47.741543 75.898964 5.624328 0.000000 0.000000 100.136917 38.742928 96.040672
-5.129786 16.016068 19.870144 -3.342425 -0.621088 3.770078 0.639352 1.794559 -0.028223 -1.540505 0.348411 -10.821173 3.169525 7.955714 21.961313 0.381729 3.154036 9.182063 1.023557 3.966385 11.852340 3.080950 0.019702 3.891983 23.163448 6.891572 6.212186 1.871017 1.156386 17.215464 1.039360 10.256092 16.552372 0.844137 2.528603 12.917336 7.011454 2.517936 3.707661 2.471636 4.773353 1.155030 1.371870 2.265117 5.420703 0.174659 0.525629 -1.550079 5.131347 0.471509 10.034904 2.909312 1.193800 6.565567 2.336837 3.503486 0.633711 -30.469652 12.435024 21.835690 10.073375 -2.629547 0.619772 0.289270 1.437401 23.093590 18.374649 19.424528 10.213724 -2.130330 0.000000 0.000000 32.528782 59.365437 38.575504 7.285526 5.157047 1.290901 63.786213 14.487019 31.426937 4.638052 33.135674 6.838519 2.041906 1.590537 10.067814 95.839188 47.577702 75.619095 5.646403 0.000000 0.000000 99.873322 38.442787 95.688972
-5.132043 16.126648 19.954725 -3.368407 -0.560704 3.745596 0.599237 1.777757 -0.060286 -1.637882 0.288316 -10.999837 3.191826 7.941403 21.931803 0.355848 3.045213 9.088021 1.003443 3.920084 11.760108 2.981605 -0.025356 3.838934 23.070824 6.814302 6.035291 1.844237 1.096385 17.140053 0.996708 10.096681 16.327763 0.812023 2.448254 12.735143 6.989795 2.497118 3.609817 2.453490 4.759962 1.074769 1.327070 2.254594 5.344070 0.073524 0.457105 -1.684113 5.124118 0.386285 9.987647 2.862608 1.160485 6.528051 2.253298 3.453205 0.619779 -31.209042 12.361643 21.569578 10.039247 -2.824162 0.581727 0.277616 1.417173 22.856829 18.288910 19.232515 10.134983 -2.182621 0.000000 0.000000 32.093189 58.928097 38.043453 7.227705 5.116440 1.268019 63.808300 14.406514 31.405085 4.344722 33.099358 6.699655 2.034352 1.574939 9.899059 94.918427 47.200695 74.990273 5.659235 0.000000 0.000000 99.264694 37.947193 95.050560
-5.137196 16.236160 20.035875 -3.395152 -0.505083 3.721126 0.559106 1.761464 -0.092992 -1.732016 0.230691 -11.174393 3.213795 7.930064 21.910391 0.330800 2.937962 9.001363 0.984588 3.877979 11.676747 2.889530 -0.067773 3.791172 22.992565 6.746485 5.874051 1.820575 1.041673 17.080881 0.957881 9.955594 16.129122 0.782934 2.375735 12.576704 6.974731 2.479475 3.521872 2.438471 4.750893 1.001036 1.286355 2.246108 5.276051 -0.020719 0.393520 -1.810068 5.120552 0.306857 9.948670 2.820661 1.130346 6.496771 2.176778 3.408353 0.607286 -31.918480 12.298722 21.329927 10.012441 -3.010155 0.545798 0.266669 1.398690 22.639343 18.213757 19.057198 10.064503 -2.233396 0.000000 0.000000 31.691795 58.530735 37.547993 7.175179 5.080208 1.246508 63.850868 14.334183 31.395945 4.063269 33.073669 6.569300 2.028398 1.560680 9.743063 94.149338 46.929165 74.515587 5.676260 0.000000 0.000000 98.837364 37.556133 94.604080
-5.138926 16.354107 20.149036 -3.413648 -0.433626 3.719351 0.538531 1.756027 -0.114960 -1.791493 0.199755 -11.283780 3.250142 7.953979 21.983503 0.318110 2.882486 8.987963 0.978055 3.871993 11.702809 2.849727 -0.091045 3.777194 23.022575 6.736881 5.809722 1.814938 1.017295 17.113022 0.940640 9.915699 16.066288 0.770015 2.345150 12.539095 6.990762 2.478245 3.485325 2.439149 4.762793 0.963491 1.268370 2.249009 5.253685 -0.075544 0.358231 -1.886707 5.138390 0.262789 9.960538 2.807136 1.116960 6.499632 2.138745 3.394547 0.602450 -32.447212 12.299388 21.260305 10.030220 -3.136366 0.524653 0.260616 1.391297 22.561049 18.215307 18.997410 10.047966 -2.273355 0.000000 0.000000 31.522650 58.416512 37.311337 7.160261 5.071492 1.234741 64.038948 14.320575 31.472965 3.875845 33.133934 6.494570 2.029412 1.553060 9.646716 93.715073 46.809479 74.192245 5.697257 0.000000 0.000000 98.536484 37.236092 94.258865
-5.140491 16.472214 20.262714 -3.431911 -0.361722 3.718254 0.518531 1.750913 -0.136647 -1.849978 0.169565 -11.391620 3.286815 7.978718 22.058691 0.305678 2.828089 8.976020 0.971766 3.866665 11.730784 2.810932 -0.113965 3.763849 23.054634 6.728338 5.747134 1.809620 0.993451 17.146822 0.923779 9.877590 16.005949 0.757379 2.315296 12.503559 7.007298 2.477285 3.449609 2.440082 4.775035 0.926532 1.250756 2.252094 5.232069 -0.129768 0.323383 -1.962586 5.156518 0.219194 9.973021 2.793965 1.103787 6.502885 2.101104 3.381069 0.597694 -32.974148 12.300695 21.192459 10.048433 -3.261977 0.503662 0.254612 1.384005 22.483849 18.217535 18.938477 10.031798 -2.313255 0.000000 0.000000 31.354748 58.303661 37.075966 7.145521 5.062908 1.223018 64.227676 14.307220 31.550373 3.688778 33.194550 6.420078 2.030461 1.545454 9.550474 93.284531 46.691536 73.863991 5.717989 0.000000 0.000000 98.222031 36.908577 93.902924
-5.147910 16.581953 20.343616 -3.461272 -0.312291 3.688784 0.473700 1.730249 -0.173938 -1.954260 0.104090 -11.594014 3.303144 7.957052 22.009230 0.276410 2.703146 8.868170 0.949314 3.812339 11.609655 2.704354 -0.161776 3.705853 22.943630 6.644298 5.558852 1.780971 0.930206 17.062199 0.878955 9.709437 15.769691 0.723434 2.230237 12.310210 6.983395 2.454991 3.347152 2.420724 4.759842 0.842063 1.203299 2.240031 5.149609 -0.236259 0.251002 -2.103903 5.146230 0.128522 9.917825 2.742612 1.068223 6.459606 2.010951 3.325697 0.582550 -33.750336 12.214334 20.894764 10.005746 -3.471163 0.462054 0.241935 1.361618 22.214581 18.114090 18.722198 9.943002 -2.367798 0.000000 0.000000 30.874685 57.809444 36.492245 7.080101 5.017203 1.197869 64.215988 14.212904 31.508699 3.370071 33.134853 6.266923 2.021572 1.527293 9.359950 92.243881 46.308910 73.098495 5.727045 0.000000 0.000000 97.501945 36.348808 93.247871
-5.158446 16.691456 20.424582 -3.490719 -0.267042 3.660656 0.430071 1.710934 -0.210945 -2.052032 0.043585 -11.788303 3.319676 7.941186 21.975492 0.249081 2.584852 8.774580 0.929294 3.765581 11.509366 2.609315 -0.205369 3.655587 22.855785 6.574075 5.393521 1.756741 0.874125 17.000130 0.839431 9.566173 15.568244 0.693468 2.155466 12.147232 6.967412 2.436529 3.256639 2.405265 4.749940 0.766265 1.161276 2.230872 5.078535 -0.333735 0.185056 -2.233870 5.140765 0.045659 9.873838 2.697515 1.036485 6.423893 1.929246 3.277213 0.569279 -34.484367 12.142775 20.636650 9.974232 -3.666641 0.423824 0.230331 1.341811 21.973339 18.026022 18.528776 9.865551 -2.420325 0.000000 0.000000 30.439590 57.367481 35.956055 7.021513 4.976667 1.174515 64.230995 14.129273 31.483273 3.068574 33.090855 6.125088 2.014313 1.510530 9.181900 91.306335 45.983711 72.411026 5.738392 0.000000 0.000000 97.257126 36.064728 93.150436
-5.166686 16.809353 20.537580 -3.511787 -0.205512 3.657373 0.407888 1.703123 -0.236604 -2.112956 0.011383 -11.913160 3.351505 7.964272 22.046110 0.235155 2.522329 8.760236 0.922612 3.757906 11.527555 2.569263 -0.228805 3.640689 22.881760 6.564795 5.329730 1.751414 0.849854 17.033924 0.822587 9.529757 15.512032 0.680869 2.125762 12.115037 6.984867 2.435504 3.220749 2.406412 4.762174 0.729109 1.143518 2.233967 5.056808 -0.388818 0.149555 -2.310576 5.158373 0.001062 9.884809 2.683321 1.022932 6.425488 1.889578 3.261923 0.564229 -35.023293 12.139860 20.561981 9.991445 -3.796448 0.401828 0.224204 1.334313 21.886005 18.022806 18.463972 9.847775 -2.460992 0.000000 0.000000 30.259430 57.235275 35.702805 7.004281 4.966492 1.162096 64.409172 14.111947 31.555431 2.874336 33.144939 6.048760 2.015398 1.502294 9.080319 90.879036 45.880905 72.062843 5.758825 0.000000 0.000000 96.865189 35.693863 92.811005
-5.174646 16.927689 20.652359 -3.532285 -0.142949 3.655468 0.386898 1.695944 -0.261686 -2.171878 -0.019299 -12.034582 3.384054 7.989132 22.121395 0.221835 2.462284 8.749165 0.916490 3.751852 11.550609 2.531474 -0.251433 3.627229 22.912321 6.557833 5.269801 1.746769 0.826732 17.071106 0.806518 9.496943 15.460700 0.668837 2.097512 12.086904 7.003376 2.435035 3.186563 2.408082 4.775101 0.693148 1.126503 2.237442 5.036611 -0.442572 0.115009 -2.385614 5.176701 -0.042392 9.897469 2.670049 1.009906 6.428130 1.851014 3.247539 0.559388 -35.557228 12.138587 20.491648 10.009815 -3.924768 0.380193 0.218192 1.327072 21.801769 18.021292 18.401802 9.831166 -2.501420 0.000000 0.000000 30.084129 57.108757 35.455036 6.987764 4.956811 1.149843 64.589973 14.095613 31.629000 2.681629 33.200459 5.973403 2.016608 1.494186 8.979900 90.459961 45.781593 71.719498 5.779401 0.000000 0.000000 96.474953 35.323044 92.481140
